<svg width="2979" height="1196" viewBox="0 0 2979 1196" fill="none" xmlns="http://www.w3.org/2000/svg">
<path d="M639.937 794.347C639.937 794.347 545.216 770.88 508.007 829.684C470.798 888.488 396.38 890.767 357.311 937.998C318.241 985.23 288.474 1070.33 377.776 1112.43C467.078 1154.53 689.197 1092.74 689.197 1092.74L731.65 818.765L639.937 794.347Z" fill="#E1ECFE"/>
<path d="M780.721 529.434C780.721 529.434 768.034 451.263 701.055 419.409C660.85 400.288 540.091 386.048 543.811 471.633C546.768 539.631 478.692 531.306 505.36 610.407C528.322 678.515 606.404 652.106 606.404 652.106L780.721 529.434Z" fill="#397373"/>
<path d="M2827.32 987.624C2738.3 916.526 2609.02 1002.51 2584.21 905.76C2559.4 809.012 2442.23 801.706 2442.23 801.706L2322.57 1191.65C2482.24 1191.62 2641.9 1191.6 2801.57 1191.57C2820.62 1191.57 2839.66 1191.57 2858.71 1191.56C2870.9 1191.56 2897.69 1110.36 2902.53 1097.66C2902.95 1096.51 2903.37 1095.37 2903.79 1094.22C2892.9 1063.78 2868.64 1020.63 2827.32 987.624Z" fill="#397373"/>
<path d="M2442.23 219.36H1652.03V1192.65H2442.23V219.36Z" fill="#6595BF"/>
<path d="M2442.23 266.956H1730.84V372.973H2442.23V266.956Z" fill="#EDF4FF"/>
<path d="M2037.5 441.544H1145.06V1195.99H2037.5V441.544Z" fill="white"/>
<path d="M2051.46 414.131H1122.99V441.544H2051.46V414.131Z" fill="white"/>
<path d="M2456.9 205.654H1636.09V233.067H2456.9V205.654Z" fill="white"/>
<path d="M1722.47 509.74H1145.06V649.968H1722.47V509.74Z" fill="#BF0404"/>
<path d="M1145.06 530.923H606.404V829.684H1145.06V530.923Z" fill="#C9EBF2"/>
<path d="M1145.06 891.845H606.404V1190.6H1145.06V891.845Z" fill="#C9EBF2"/>
<path d="M1145.06 829.684H681.061V891.845H1145.06V829.684Z" fill="#6595BF"/>
<path d="M1223.6 630.219C1210.1 630.219 1197.41 624.962 1187.87 615.416C1178.32 605.871 1173.06 593.18 1173.06 579.68C1173.06 566.18 1178.32 553.489 1187.87 543.943C1197.41 534.398 1210.1 529.141 1223.6 529.141C1237.1 529.141 1249.8 534.398 1259.34 543.943C1268.89 553.489 1274.15 566.18 1274.15 579.68C1274.15 593.18 1268.89 605.871 1259.34 615.416C1249.8 624.962 1237.1 630.219 1223.6 630.219ZM1223.6 533.792C1211.35 533.792 1199.82 538.565 1191.16 547.232C1182.49 555.899 1177.72 567.422 1177.72 579.679C1177.72 591.936 1182.49 603.459 1191.16 612.126C1199.82 620.793 1211.35 625.566 1223.6 625.566C1235.86 625.566 1247.38 620.793 1256.05 612.126C1264.72 603.459 1269.49 591.936 1269.49 579.679C1269.49 567.422 1264.72 555.899 1256.05 547.232C1247.38 538.565 1235.86 533.792 1223.6 533.792Z" fill="white"/>
<path d="M1256.25 571.436H1231.85V547.037H1215.36V571.436H1190.96V587.924H1215.36V612.321H1231.85V587.924H1256.25V571.436Z" fill="white"/>
<path d="M1314.23 555.467H1324.96V574.768H1344.75V555.467H1355.48V604.241H1344.75V584.662H1324.96V604.241H1314.23V555.467Z" fill="white"/>
<path d="M1365.02 579.854C1365.02 565.988 1375.96 554.63 1391.01 554.63C1406.07 554.63 1416.87 565.849 1416.87 579.854C1416.87 593.721 1405.93 605.079 1390.88 605.079C1375.82 605.078 1365.02 593.859 1365.02 579.854ZM1405.65 579.854C1405.65 571.493 1399.51 564.525 1390.88 564.525C1382.23 564.525 1376.24 571.354 1376.24 579.854C1376.24 588.215 1382.37 595.184 1391.01 595.184C1399.65 595.184 1405.65 588.354 1405.65 579.854Z" fill="white"/>
<path d="M1422.72 597.134L1429.06 589.539C1433.45 593.162 1438.05 595.462 1443.62 595.462C1448.01 595.462 1450.66 593.721 1450.66 590.724C1450.66 588.006 1448.99 586.613 1440.84 584.523C1431.01 582.014 1424.67 579.296 1424.67 569.472C1424.67 560.622 1431.78 554.77 1441.74 554.77C1448.85 554.77 1454.91 556.999 1459.86 560.971L1454.29 569.054C1449.97 566.058 1445.72 564.246 1441.6 564.246C1437.49 564.246 1435.33 566.127 1435.33 568.636C1435.33 571.841 1437.42 572.886 1445.85 575.046C1455.75 577.624 1461.32 581.178 1461.32 589.818C1461.32 599.503 1453.94 604.938 1443.42 604.938C1436.03 604.938 1428.57 602.36 1422.72 597.134Z" fill="white"/>
<path d="M1470.66 555.467H1490.59C1502.23 555.467 1509.26 562.364 1509.26 572.468C1509.26 583.756 1500.49 589.61 1489.55 589.61H1481.39V604.242H1470.66L1470.66 555.467ZM1489.89 580.063C1495.26 580.063 1498.39 576.857 1498.39 572.537C1498.39 567.729 1495.05 565.151 1489.68 565.151H1481.39V580.063H1489.89Z" fill="white"/>
<path d="M1517.7 555.467H1528.43V604.241H1517.7V555.467Z" fill="white"/>
<path d="M1551.98 565.36H1537.14V555.466H1577.55V565.36H1562.71V604.241H1551.98V565.36Z" fill="white"/>
<path d="M1596.23 555.117H1606.12L1627.03 604.241H1615.81L1611.35 593.302H1590.72L1586.26 604.241H1575.32L1596.23 555.117ZM1607.52 583.825L1601.04 568.009L1594.56 583.825H1607.52Z" fill="white"/>
<path d="M1634.55 555.467H1645.28V594.487H1669.6V604.242H1634.55L1634.55 555.467Z" fill="white"/>
<path d="M2442.23 835.195H2082.35V1072.7H2442.23V835.195Z" fill="#AFCDFB"/>
<path d="M2442.23 485.487H2082.35V722.992H2442.23V485.487Z" fill="#AFCDFB"/>
<path d="M2442.23 272.601H1738.33V366.171H2442.23V272.601Z" fill="#AFCDFB"/>
<path d="M1145.06 450.958L2037.5 477.871V441.544H1145.06V450.958Z" fill="#DFEBFD"/>
<path d="M1145.06 529.141H572.704V558.718H1145.06V529.141Z" fill="white"/>
<path d="M571.869 1068.5C501.999 1084.37 483.369 1141.09 439.125 1107.06C394.881 1073.02 338.99 1095.72 308.726 1097.2C278.449 1098.68 283.1 1027.65 217.894 1004.97C186.513 994.044 134.021 992.115 96.493 993.748C91.545 1034.45 96.763 1067.56 103.982 1092.05C111.2 1116.54 123.085 1139.64 140.18 1159.95C148.098 1169.36 159.064 1185.93 172.15 1190.61H683.65C709.264 1128.94 641.726 1052.61 571.869 1068.5Z" fill="#397373"/>
<path d="M385.665 105.084C385.665 105.084 432.987 49.5331 546.147 55.7051C546.147 55.7051 710.435 -36.884 885.627 43.36C885.627 43.36 1071.85 23.4771 1209.77 60.5751C1301.72 85.3091 1332.1 111.256 1332.1 111.256L385.665 105.084Z" fill="#F8FCFF"/>
<path d="M1405.56 36.9471C1405.56 16.8111 1421.89 0.487061 1442.02 0.487061C1462.16 0.487061 1478.48 16.8101 1478.48 36.9471C1478.48 57.0831 1462.16 73.4061 1442.02 73.4061C1421.89 73.4061 1405.56 57.0831 1405.56 36.9471Z" fill="#F8FCFF"/>
<path d="M931.774 267.943C931.774 267.943 957.693 237.517 1019.67 240.897C1019.67 240.897 1109.66 190.185 1205.61 234.136C1205.61 234.136 1307.61 223.246 1383.15 243.565C1433.52 257.112 1450.15 271.324 1450.15 271.324L931.774 267.943Z" fill="#F8FCFF"/>
<path d="M1911.04 860.617H1283.94V1188.21H1911.04V860.617Z" fill="#98BAF4"/>
<path d="M1892.88 883.525H1305.02V1189.31H1892.88V883.525Z" fill="white"/>
<path d="M1871.81 902.868H1327.28V973.129H1871.81V902.868Z" fill="#AFCDFB"/>
<path d="M1486.51 992.213H1327.28V1187.99H1486.51V992.213Z" fill="#AFCDFB"/>
<path d="M1697.43 992.213H1501.66V1187.99H1697.43V992.213Z" fill="#AFCDFB"/>
<path d="M1871.81 992.213H1710.89V1187.99H1871.81V992.213Z" fill="#AFCDFB"/>
<path d="M1565.81 992.213H1697.43V1064.67L1673.97 1187.99H1528.56L1565.81 992.213Z" fill="#CCE1FF"/>
<path d="M1673.78 1029.47H1527.33V1188.21H1673.78V1029.47Z" fill="white"/>
<path d="M1666.8 1036.64H1534.31V1188.21H1666.8V1036.64Z" fill="#98BAF4"/>
<path d="M1603.02 1036.64H1598.09V1188.21H1603.02V1036.64Z" fill="white"/>
<path d="M1586.28 1112.43C1586.28 1110.7 1587.68 1109.3 1589.41 1109.3C1591.14 1109.3 1592.54 1110.7 1592.54 1112.43C1592.54 1114.16 1591.14 1115.56 1589.41 1115.56C1587.68 1115.56 1586.28 1114.16 1586.28 1112.43Z" fill="white"/>
<path d="M1608.57 1112.43C1608.57 1110.7 1609.97 1109.3 1611.7 1109.3C1613.43 1109.3 1614.83 1110.7 1614.83 1112.43C1614.83 1114.16 1613.43 1115.56 1611.7 1115.56C1609.97 1115.56 1608.57 1114.16 1608.57 1112.43Z" fill="white"/>
<path d="M1377.93 992.213H1458.55L1432.82 1187.99H1352.2L1377.93 992.213Z" fill="#CCE1FF"/>
<path d="M1470.29 902.868L1461.06 973.129H1380.44L1389.67 902.868H1470.29Z" fill="#CCE1FF"/>
<path d="M1748.98 992.213H1829.6L1803.86 1187.99H1723.24L1748.98 992.213Z" fill="#CCE1FF"/>
<path d="M1841.34 902.868L1832.1 973.129H1751.48L1760.72 902.868H1841.34Z" fill="#CCE1FF"/>
<path d="M1728.21 902.868L1714.84 973.129H1569.43L1582.8 902.868H1728.21Z" fill="#CCE1FF"/>
<path d="M1711.02 1006.64H1711.32L1711.02 1008.2V1006.64Z" fill="#CCE1FF"/>
<path d="M1239.78 1188.09C1239.78 1188.09 1235.91 1153.83 1270.64 1145.15C1305.37 1136.47 1319 1105.46 1359.32 1131.51C1399.64 1157.55 1386.88 1188.09 1386.88 1188.09L1239.78 1188.09Z" fill="#397373"/>
<path d="M2250.55 722.992H2131.48L2183.57 485.491H2302.65L2250.55 722.992Z" fill="#BDD7FD"/>
<path d="M2356.06 1072.7H2236.98L2289.08 835.198H2408.15L2356.06 1072.7Z" fill="#CCE1FF"/>
<path d="M2186.71 835.195L2134.62 1072.7H2082.35V835.195H2186.71Z" fill="#CCE1FF"/>
<path d="M2442.23 485.487V722.992H2311.33L2369.47 485.487H2442.23Z" fill="#CCE1FF"/>
<path d="M1920.62 272.601H1910.69V366.171H1920.62V272.601Z" fill="#EDF4FF"/>
<path d="M2120.94 272.601H2111.01V366.171H2120.94V272.601Z" fill="#EDF4FF"/>
<path d="M2316.29 272.601H2306.37V366.171H2316.29V272.601Z" fill="#EDF4FF"/>
<g opacity="0.5">
<path d="M729.184 638.153H669.513V732.341H729.184V638.153Z" fill="#98BAF4"/>
<path d="M731.649 735.375H665.91V635.119H731.649V735.375ZM671.978 729.307H725.581V641.187H671.978V729.307Z" fill="white"/>
<path d="M726.34 669.652H671.22V674.204H726.34V669.652Z" fill="white"/>
<path d="M726.34 700.996H671.22V705.548H726.34V700.996Z" fill="white"/>
<path d="M701.055 732.341V637.71H696.504V732.341H701.055Z" fill="white"/>
<path d="M901.482 638.153H841.811V732.341H901.482V638.153Z" fill="#98BAF4"/>
<path d="M903.948 735.375H838.208V635.119H903.948V735.375ZM844.276 729.307H897.879V641.187H844.276V729.307Z" fill="white"/>
<path d="M898.638 669.652H843.518V674.204H898.638V669.652Z" fill="white"/>
<path d="M898.638 700.996H843.518V705.548H898.638V700.996Z" fill="white"/>
<path d="M873.353 732.341V637.71H868.802V732.341H873.353Z" fill="white"/>
<path d="M1073.78 638.153H1014.11V732.341H1073.78V638.153Z" fill="#98BAF4"/>
<path d="M1076.25 735.375H1010.51V635.119H1076.25V735.375ZM1016.58 729.307H1070.18V641.187H1016.58V729.307Z" fill="white"/>
<path d="M1070.94 669.652H1015.82V674.204H1070.94V669.652Z" fill="white"/>
<path d="M1070.94 700.996H1015.82V705.548H1070.94V700.996Z" fill="white"/>
<path d="M1045.65 732.341V637.71H1041.1V732.341H1045.65Z" fill="white"/>
</g>
<g opacity="0.5">
<path d="M729.184 961.107H669.513V1055.29H729.184V961.107Z" fill="#98BAF4"/>
<path d="M731.649 1058.33H665.91V958.073H731.649V1058.33ZM671.978 1052.26H725.581V964.142H671.978V1052.26Z" fill="white"/>
<path d="M726.34 992.607H671.22V997.158H726.34V992.607Z" fill="white"/>
<path d="M726.34 1023.95H671.22V1028.5H726.34V1023.95Z" fill="white"/>
<path d="M701.056 1055.3V960.666H696.505V1055.3H701.056Z" fill="white"/>
<path d="M901.482 961.107H841.811V1055.29H901.482V961.107Z" fill="#98BAF4"/>
<path d="M903.948 1058.33H838.208V958.073H903.948V1058.33ZM844.276 1052.26H897.879V964.142H844.276V1052.26Z" fill="white"/>
<path d="M898.638 992.607H843.518V997.158H898.638V992.607Z" fill="white"/>
<path d="M898.638 1023.95H843.518V1028.5H898.638V1023.95Z" fill="white"/>
<path d="M873.354 1055.3V960.665H868.803V1055.3H873.354Z" fill="white"/>
<path d="M1073.78 961.107H1014.11V1055.29H1073.78V961.107Z" fill="#98BAF4"/>
<path d="M1076.25 1058.33H1010.51V958.073H1076.25V1058.33ZM1016.58 1052.26H1070.18V964.142H1016.58V1052.26Z" fill="white"/>
<path d="M1070.94 992.607H1015.82V997.158H1070.94V992.607Z" fill="white"/>
<path d="M1070.94 1023.95H1015.82V1028.5H1070.94V1023.95Z" fill="white"/>
<path d="M1045.65 1055.29V960.665H1041.1V1055.29H1045.65Z" fill="white"/>
</g>
<path d="M2063.8 761.526H1131.19V794.346H2063.8V761.526Z" fill="#DFEBFD"/>
<path d="M824.373 529.141C824.373 529.141 840.498 476.667 880.189 477.871C919.881 479.075 932.284 515.6 945.928 509.741C959.572 503.883 999.264 507.265 1001.74 529.141H824.373Z" fill="#397373"/>
<path d="M2714.72 1007.38V1029.61C2714.72 1031.58 2714.25 1033.49 2713.41 1035.17C2711.37 1039.25 2707.11 1042.06 2702.26 1042.06H2698.27C2691.44 1042.06 2685.82 1036.47 2685.82 1029.61V1007.38C2685.82 1005.03 2686.49 1002.85 2687.63 1000.98C2687.63 1000.95 2687.63 1000.95 2687.63 1000.95C2689.84 997.33 2693.79 994.919 2698.27 994.919H2702.26C2709.12 994.918 2714.72 1000.54 2714.72 1007.38Z" fill="#233862"/>
<path opacity="0.3" d="M2713.41 1035.17C2711.37 1039.25 2707.11 1042.06 2702.26 1042.06H2698.27C2691.44 1042.06 2685.82 1036.47 2685.82 1029.61V1007.38C2685.82 1005.03 2686.49 1002.85 2687.63 1000.98C2687.86 1002.35 2693.15 1032.86 2713.41 1035.17Z" fill="#233862"/>
<path d="M2517.24 1170.11H2578.81V1107.97H2514.57L2517.24 1170.11Z" fill="#011140"/>
<path d="M2711.39 1038.75L2408.88 1046.21V886.685H2607.53C2626.47 886.685 2643.81 897.285 2652.45 914.138L2665.45 939.511L2711.39 1038.75Z" fill="white"/>
<path d="M2539.54 1160C2539.54 1176.87 2548.24 1195.48 2548.24 1195.48C2548.24 1195.48 2561.18 1195.48 2562.97 1195.48C2575.92 1195.48 2586.41 1179.59 2586.41 1160C2586.41 1140.41 2561.18 1124.52 2548.24 1124.52C2535.3 1124.52 2539.54 1140.41 2539.54 1160Z" fill="#233862"/>
<path d="M2524.81 1160C2524.81 1179.59 2535.3 1195.48 2548.24 1195.48C2561.19 1195.48 2571.68 1179.59 2571.68 1160C2571.68 1140.41 2561.19 1124.52 2548.24 1124.52C2535.3 1124.52 2524.81 1140.41 2524.81 1160Z" fill="#2B478B"/>
<path d="M2530.89 1160C2530.89 1174.76 2538.79 1186.72 2548.54 1186.72C2558.29 1186.72 2566.19 1174.76 2566.19 1160C2566.19 1145.24 2558.29 1133.28 2548.54 1133.28C2538.79 1133.28 2530.89 1145.24 2530.89 1160Z" fill="#AFCDFB"/>
<path d="M2708.92 1160C2708.92 1176.87 2717.62 1195.48 2717.62 1195.48C2717.62 1195.48 2730.56 1195.48 2732.35 1195.48C2745.29 1195.48 2755.79 1179.59 2755.79 1160C2755.79 1140.41 2730.56 1124.52 2717.62 1124.52C2704.68 1124.52 2708.92 1140.41 2708.92 1160Z" fill="#233862"/>
<path d="M2694.19 1160C2694.19 1179.59 2704.68 1195.48 2717.62 1195.48C2730.56 1195.48 2741.06 1179.59 2741.06 1160C2741.06 1140.41 2730.56 1124.52 2717.62 1124.52C2704.68 1124.52 2694.19 1140.41 2694.19 1160Z" fill="#2B478B"/>
<path d="M2319.96 1160C2319.96 1176.87 2328.66 1195.48 2328.66 1195.48C2328.66 1195.48 2341.59 1195.48 2343.39 1195.48C2356.33 1195.48 2366.82 1179.59 2366.82 1160C2366.82 1140.41 2341.6 1124.52 2328.66 1124.52C2315.72 1124.52 2319.96 1140.41 2319.96 1160Z" fill="#233862"/>
<path d="M2305.23 1160C2305.23 1179.59 2315.72 1195.48 2328.66 1195.48C2341.6 1195.48 2352.09 1179.59 2352.09 1160C2352.09 1140.41 2341.6 1124.52 2328.66 1124.52C2315.72 1124.52 2305.23 1140.41 2305.23 1160Z" fill="#2B478B"/>
<path d="M2779.12 1143.26C2779.15 1158.09 2767.13 1170.11 2752.33 1170.11H2578.81C2579.31 1167.2 2579.58 1164.18 2579.58 1161.07C2579.58 1138.13 2565.82 1119.52 2548.88 1119.52C2531.9 1119.52 2518.14 1138.13 2518.14 1161.07C2518.14 1164.18 2518.37 1167.2 2518.87 1170.11H2417.48C2417.48 1170.11 2413.39 1124.84 2413.9 1102.14C2414.3 1082.38 2414.3 1043.67 2413.13 1034.23C2413.13 1032.82 2510.9 1032.66 2535.58 1032.56C2538.93 1032.52 2540.94 1032.52 2541.14 1032.52L2541.48 1032.76L2541.84 1033.02C2546.4 1036.21 2571.91 1054.09 2587.75 1064.57C2601.71 1073.78 2704.78 1077.52 2745.2 1078.66C2755.24 1078.93 2761.44 1079.03 2761.44 1079.03C2761.44 1079.03 2766.96 1084.69 2771.85 1093.63C2775.6 1100.56 2778.95 1109.47 2779.02 1119.21C2779.05 1125.28 2779.08 1132.57 2779.08 1139.74C2779.12 1140.91 2779.12 1142.08 2779.12 1143.26Z" fill="white"/>
<path d="M2687 1032.52H2551.05C2547.91 1032.52 2545.06 1030.68 2543.75 1027.83L2510.1 952.961C2509 950.517 2510.8 947.737 2513.48 947.737H2656.9C2660.05 947.737 2662.93 949.612 2664.2 952.525L2688.31 1007.61L2694.33 1021.37C2696.61 1026.63 2692.76 1032.52 2687 1032.52Z" fill="#98BAF4"/>
<path d="M2623.67 1139.74C2623.65 1142.09 2623.55 1144.3 2623.42 1146.27C2622.44 1159.3 2609.35 1170.11 2609.35 1170.11H2578.81C2579.31 1167.19 2579.58 1164.18 2579.58 1161.07C2579.58 1153.27 2577.97 1145.97 2575.23 1139.74C2569.83 1127.62 2560.06 1119.51 2548.88 1119.51C2537.65 1119.51 2527.88 1127.62 2522.48 1139.74C2519.74 1145.97 2518.13 1153.27 2518.13 1161.07C2518.13 1164.18 2518.38 1167.19 2518.88 1170.11H2408.87V886.697H2497.18L2497.6 939.51C2497.6 939.51 2499.09 947.428 2502.1 954.504C2504.8 960.819 2508.39 969.231 2512.29 978.388C2520.33 997.162 2529.72 1019.07 2535.59 1032.56C2538.53 1039.39 2540.61 1044.04 2541.14 1045.05C2542.79 1048.19 2567.29 1061.47 2588.01 1073.25C2593.17 1076.19 2598.11 1079.04 2602.39 1081.61C2608.49 1085.28 2613.25 1088.38 2615.51 1090.42C2621.16 1095.51 2623.98 1121.97 2623.67 1139.74Z" fill="#DFEBFD"/>
<path d="M2761.44 1079.03H2600.31L2541.48 1032.76L2541.14 1032.52H2703.68L2749.95 1069.76L2761.44 1079.03Z" fill="white"/>
<path d="M2621.17 1106.22L2606.6 1104.78C2601.51 1104.28 2597.4 1100.46 2596.49 1095.44L2593.14 1077.02C2593.08 1076.72 2593.04 1076.46 2593.08 1076.15C2603.46 1082.11 2612.2 1087.44 2615.51 1090.42C2617.92 1092.59 2619.83 1098.62 2621.17 1106.22Z" fill="#A8302D"/>
<path d="M2665.46 939.51H2497.6C2497.6 939.51 2496.95 928.769 2492.74 916.501C2488.99 905.668 2482.51 893.585 2471.16 886.688H2608.33C2630.69 886.688 2650.51 898.63 2658.38 916.501C2658.75 917.242 2659.07 917.982 2659.35 918.724C2661.71 924.926 2663.84 931.87 2665.46 939.51Z" fill="white"/>
<path d="M2621.2 1106.22L2606.6 1104.78C2601.51 1104.28 2597.39 1100.46 2596.49 1095.44L2593.14 1077.02C2593.08 1076.72 2593.04 1076.42 2593.08 1076.12C2603.46 1082.11 2612.2 1087.44 2615.51 1090.42C2617.92 1092.59 2619.83 1098.62 2621.2 1106.22Z" fill="#A2C2DD"/>
<path d="M2779.12 1143.26C2779.15 1158.09 2766.56 1170.11 2751.02 1170.11H2578.81C2579.31 1167.2 2579.58 1164.18 2579.58 1161.07C2579.58 1153.27 2577.97 1145.97 2575.23 1139.74H2779.08C2779.12 1140.91 2779.12 1142.09 2779.12 1143.26Z" fill="#233862"/>
<path d="M2518.14 1161.07C2518.14 1164.18 2518.37 1167.2 2518.87 1170.11H2408.87V1139.74H2522.49C2519.74 1145.97 2518.14 1153.27 2518.14 1161.07Z" fill="#233862"/>
<path d="M2665.67 1080.34H2731.57C2733.67 1080.34 2735.28 1083.18 2734.96 1086.33L2732.62 1109.23C2732.28 1112.59 2730.36 1115.08 2728.11 1115.08H2673.82C2670.34 1115.08 2667.27 1111.64 2666.26 1106.6L2662.35 1087.13C2661.67 1083.75 2663.34 1080.34 2665.67 1080.34Z" fill="#233862"/>
<path d="M2688.31 1007.61C2610.59 1003.62 2558.02 962.036 2542.15 947.738H2656.9C2660.05 947.738 2662.93 949.613 2664.2 952.526L2688.31 1007.61Z" fill="#AFCDFB"/>
<path d="M2439.96 886.684H2145.99V1170.14H2439.96V886.684Z" fill="white"/>
<path d="M2665.46 939.51H2497.6C2497.6 939.51 2496.95 928.769 2492.74 916.501H2658.38C2658.75 917.242 2659.07 917.982 2659.35 918.724C2661.71 924.926 2663.84 931.87 2665.46 939.51Z" fill="#DFEBFD"/>
<path d="M2771.85 1093.63C2770.91 1095.17 2769.71 1096.18 2768.4 1096.41L2745.8 1100.6C2743.89 1100.97 2742.42 1097.65 2742.92 1094.24L2745.13 1079.03L2745.2 1078.67L2745.63 1075.55C2746.04 1072.87 2747.21 1070.83 2748.65 1070.26L2749.95 1069.76L2761.44 1079.03C2761.44 1079.03 2766.96 1084.69 2771.85 1093.63Z" fill="#233862"/>
<path d="M2615.51 1073.24H2145.99V1097.14H2615.51V1073.24Z" fill="#BF0404"/>
<path d="M2439.96 935.796H2145.99V959.68H2439.96V935.796Z" fill="#BF0404"/>
<path d="M2251.13 1015.93C2251.13 992.822 2269.87 974.087 2292.98 974.087C2316.09 974.087 2334.82 992.821 2334.82 1015.93C2334.82 1039.04 2316.09 1057.78 2292.98 1057.78C2269.87 1057.78 2251.13 1039.04 2251.13 1015.93Z" fill="#BF0404"/>
<path d="M2292.98 1052.98C2283.08 1052.98 2273.78 1049.13 2266.78 1042.13C2259.78 1035.13 2255.93 1025.83 2255.93 1015.93C2255.93 1006.04 2259.78 996.732 2266.78 989.734C2273.78 982.737 2283.08 978.883 2292.98 978.883C2302.87 978.883 2312.18 982.737 2319.17 989.734C2326.17 996.732 2330.02 1006.04 2330.02 1015.93C2330.02 1025.83 2326.17 1035.13 2319.17 1042.13C2312.18 1049.13 2302.87 1052.98 2292.98 1052.98ZM2292.98 982.294C2283.99 982.294 2275.54 985.793 2269.19 992.147C2262.84 998.501 2259.34 1006.95 2259.34 1015.93C2259.34 1024.92 2262.84 1033.37 2269.19 1039.72C2275.54 1046.07 2283.99 1049.57 2292.98 1049.57C2301.96 1049.57 2310.41 1046.07 2316.76 1039.72C2323.12 1033.36 2326.62 1024.92 2326.62 1015.93C2326.62 1006.95 2323.12 998.5 2316.76 992.147C2310.41 985.794 2301.96 982.294 2292.98 982.294Z" fill="white"/>
<path d="M2316.9 1009.89H2299.02V992.004H2286.93V1009.89H2269.05V1021.98H2286.93V1039.86H2299.02V1021.98H2316.9V1009.89Z" fill="white"/>
<path d="M2648.83 1108.97L2621.2 1106.22H2621.17L2606.6 1104.78C2601.51 1104.28 2597.4 1100.46 2596.49 1095.44L2593.14 1077.02C2593.08 1076.72 2593.04 1076.46 2593.08 1076.15V1076.12C2592.91 1072.24 2596.46 1069.09 2600.44 1069.89L2643.47 1078.63C2646.22 1079.2 2648.39 1081.24 2649.13 1083.92L2654.19 1102.61C2655.12 1106.02 2652.34 1109.34 2648.83 1108.97Z" fill="#233862"/>
<path d="M2498.16 961.207L2527.12 1032.53H2477.43C2477.43 1032.53 2467.24 1030.83 2465.93 1010C2464.54 987.76 2464.54 949.383 2464.54 949.383L2486.35 949.279C2494.66 950.534 2495.97 955.1 2498.16 961.207Z" fill="#98BAF4"/>
<path d="M2512.38 995.909C2512.38 995.909 2514.9 1024.74 2500.67 1032.63H2527.25L2512.38 995.909Z" fill="#233862"/>
<path d="M2516.29 1015.2C2516.29 1015.2 2510.29 1010.93 2509.77 1007.39V1027.55H2517.62L2516.29 1015.2Z" fill="#233862"/>
<path d="M2509.77 1007.38V1029.61C2509.77 1031.58 2509.3 1033.49 2508.46 1035.17C2506.42 1039.25 2502.16 1042.06 2497.31 1042.06H2493.32C2486.49 1042.06 2480.87 1036.47 2480.87 1029.61V1007.38C2480.87 1005.03 2481.54 1002.85 2482.68 1000.98C2482.68 1000.95 2482.68 1000.95 2482.68 1000.95C2484.89 997.33 2488.84 994.919 2493.32 994.919H2497.31C2504.17 994.918 2509.77 1000.54 2509.77 1007.38Z" fill="#233862"/>
<path d="M2440.25 1161.07C2440.25 1164.18 2440.68 1167.2 2441.61 1170.11H2239.2V1139.74H2448.26C2443.21 1145.97 2440.25 1153.27 2440.25 1161.07Z" fill="#233862"/>
<path d="M2347.04 1161.07C2347.04 1164.18 2347.47 1167.2 2348.4 1170.11H2145.99V1139.74H2355.05C2350 1145.97 2347.04 1153.27 2347.04 1161.07Z" fill="#233862"/>
<path d="M2242.01 1170.13H2169.7C2168.17 1163.6 2163.57 1117.13 2204.09 1117.13C2240.92 1117.12 2243.63 1159.53 2242.01 1170.13Z" fill="#011140"/>
<path d="M2192.33 1160C2192.33 1176.87 2201.03 1195.48 2201.03 1195.48C2201.03 1195.48 2213.97 1195.48 2215.77 1195.48C2228.71 1195.48 2239.2 1179.59 2239.2 1160C2239.2 1140.41 2213.98 1124.52 2201.03 1124.52C2188.09 1124.52 2192.33 1140.41 2192.33 1160Z" fill="#233862"/>
<path d="M2177.6 1160C2177.6 1179.59 2188.09 1195.48 2201.04 1195.48C2213.98 1195.48 2224.47 1179.59 2224.47 1160C2224.47 1140.41 2213.98 1124.52 2201.04 1124.52C2188.09 1124.52 2177.6 1140.41 2177.6 1160Z" fill="#2B478B"/>
<path d="M2183.68 1160C2183.68 1174.76 2191.58 1186.72 2201.33 1186.72C2211.08 1186.72 2218.98 1174.76 2218.98 1160C2218.98 1145.24 2211.08 1133.28 2201.33 1133.28C2191.58 1133.28 2183.68 1145.24 2183.68 1160Z" fill="#AFCDFB"/>
<path d="M1717.97 868.68C1716.48 865.791 1750.66 855.386 1751.2 883.901C1751.2 883.901 1815.23 882.327 1784.66 846.637C1774.07 834.283 1775.16 824.067 1775.48 814.557C1775.8 805.046 1768.88 777.407 1745.18 780.19C1745.18 780.19 1738.98 777.665 1731.23 781.683C1713.62 790.821 1674.16 879.195 1717.97 868.68Z" fill="#011140"/>
<path d="M1822.66 900.559C1822.66 900.559 1826.82 894.213 1830.18 894.089C1833.54 893.964 1839.76 892.223 1839.26 893.467C1838.77 894.711 1834.91 894.835 1834.54 895.582C1834.16 896.328 1840.26 897.447 1842 897.572C1843.74 897.696 1847.85 897.572 1847.72 898.443C1847.6 899.313 1840.32 902.922 1835.19 902.423C1830.06 901.926 1823.71 903.916 1823.71 903.916L1822.66 900.559Z" fill="#FFB27D"/>
<path d="M1762.38 902.611C1762.38 902.611 1764.64 907.096 1768.75 912.252C1773.7 918.455 1781.34 925.621 1790.93 927.035C1795.51 927.711 1799.99 926.725 1804.11 924.896C1804.12 924.892 1804.12 924.892 1804.12 924.892C1815.77 919.723 1824.52 907.835 1824.52 907.835C1826.57 902.236 1823.21 898.44 1823.21 898.44C1823.21 898.44 1799.7 903.729 1797.46 902.61C1795.22 901.49 1782.16 863.856 1779.05 859.128C1775.94 854.399 1765.34 851.943 1765.34 851.943L1762.38 902.611Z" fill="#011140"/>
<path d="M1674.65 1156.43C1674.65 1156.43 1667.48 1162.98 1668.88 1167.63C1670.28 1172.28 1676.75 1175.39 1677.63 1181.07C1678.5 1186.76 1682 1189.86 1685.15 1189.86C1688.3 1189.86 1700.17 1189.86 1700.17 1189.86C1700.17 1189.86 1702.49 1185.86 1696.89 1184.65C1691.29 1183.45 1689.18 1176.76 1689.53 1170.56C1689.88 1164.36 1689 1156.09 1689 1156.09L1677.1 1153.33L1674.65 1156.43Z" fill="#233862"/>
<path d="M1735.38 1159.21C1735.38 1159.21 1732.8 1186.95 1735.95 1188.5L1776.26 1188.42C1776.26 1188.42 1776.26 1183.77 1769.79 1182.73C1763.31 1181.7 1751.94 1177.91 1750.01 1169.46C1748.09 1161.02 1735.38 1159.21 1735.38 1159.21Z" fill="#233862"/>
<path d="M1706.65 960.204C1714.95 941.6 1720.02 936.26 1719.05 930.485C1718.33 926.188 1721.25 850.355 1721.25 850.355C1722.23 850.05 1724.21 849.777 1725.29 849.538C1728.69 848.782 1731.51 846.392 1732.68 843.109C1734.09 839.155 1735.21 833.316 1735.19 826L1736.25 826.209L1754.12 829.748C1754.12 829.748 1753.71 835.371 1753.7 840.668C1753.7 840.712 1753.7 840.756 1753.7 840.8C1753.68 845.401 1756.69 849.461 1761.12 850.737C1763.37 851.388 1765.34 851.946 1765.34 851.946C1765.34 851.946 1771.9 870.676 1773.15 889.921C1774.4 909.163 1761.22 917.524 1773.25 955.978C1785.53 995.25 1702.07 970.484 1706.65 960.204Z" fill="#FFB27D"/>
<path d="M1754.12 829.748C1754.12 829.748 1753.71 835.371 1753.7 840.668C1743.7 840.386 1738.41 831.265 1736.25 826.209L1754.12 829.748Z" fill="#E8945B"/>
<path d="M1757.46 834.764C1757.46 834.764 1733.8 835.154 1733.78 820.418C1733.77 805.683 1730.7 795.809 1745.81 794.937C1760.91 794.065 1763.85 799.684 1765.05 804.601C1766.25 809.518 1763.61 834.282 1757.46 834.764Z" fill="#FFB27D"/>
<path d="M1756.58 794.575C1756.58 794.575 1750.1 811.863 1740.16 814.419C1730.22 816.976 1725.91 814.313 1725.91 814.313C1725.91 814.313 1733.54 808.255 1735.12 797.682C1735.12 797.682 1751.7 786.347 1756.58 794.575Z" fill="#011140"/>
<path d="M1754.98 795.979C1754.98 795.979 1759.78 797.775 1761.76 801.278C1763.69 804.704 1765.34 809.24 1764.95 814.805C1764.95 814.805 1769.83 803.055 1764.35 796.408C1758.53 789.359 1754.98 795.979 1754.98 795.979Z" fill="#011140"/>
<path d="M1752.31 825.622C1752.31 825.622 1753.94 827.769 1757.21 827.615C1759.84 827.49 1760.85 825.208 1760.85 825.208C1760.85 825.208 1756.02 824.047 1752.31 825.622Z" fill="#EBF3FA"/>
<path d="M1709.87 883.9C1709.87 883.9 1709.96 895.12 1710.56 905.283C1710.96 912.02 1711.58 918.294 1712.55 920.526C1714.98 926.125 1717.71 927.035 1717.71 927.035L1738.88 932.223L1746.32 934.044L1769.79 927.034C1769.79 927.034 1780.48 897.198 1776.19 880.402C1771.89 863.606 1765.33 851.943 1765.33 851.943C1765.33 851.943 1746.19 870.694 1721.25 850.352L1709.87 883.9Z" fill="#011140"/>
<path d="M1768.3 931.564C1768.3 931.564 1779.92 967.74 1780.67 980.057C1781.41 992.373 1758.45 1155.03 1757.53 1160.7C1756.65 1166.05 1750.01 1169.46 1750.01 1169.46C1750.01 1169.46 1746.95 1171.27 1742.59 1170.03C1736.54 1168.33 1734.63 1166.28 1734.63 1166.28C1734.63 1166.28 1725.59 1050.28 1731.19 1008.84C1736.78 967.399 1736.85 931.564 1736.85 931.564H1768.3Z" fill="#ED7D2B"/>
<path d="M1719.06 930.485C1719.06 930.485 1701.33 954.273 1699.67 970.353C1698.02 986.433 1697.08 1042.92 1693.56 1058.59C1690.04 1074.27 1677.1 1104.44 1677.1 1153.33C1677.1 1153.33 1678.45 1156.13 1682.6 1157.62C1683.93 1158.1 1685.71 1158.56 1687.43 1158.96C1690.86 1159.75 1694.37 1158.07 1695.93 1154.93C1704.68 1137.32 1732.54 1080.52 1733.97 1068.73C1734.98 1060.38 1743.78 1005.16 1762.96 972.759C1767.57 964.981 1760.14 934.044 1760.14 934.044L1719.06 930.485Z" fill="#F99746"/>
<path d="M1752.83 826.016C1752.83 826.016 1753.24 827.752 1757.56 827.485C1757.56 827.485 1761.19 827.261 1761.08 825.352C1761.08 825.352 1757.56 823.994 1752.83 826.016Z" fill="white"/>
<path d="M1770.15 925.979C1770.15 925.979 1765.49 929.67 1756.22 929.857C1745.15 930.08 1717.71 927.034 1717.71 927.034C1717.71 927.034 1716.49 930.44 1716.54 934.036C1716.54 934.036 1750.05 942.488 1769.46 935.27C1769.46 935.27 1771.97 930.56 1770.15 925.979Z" fill="#233862"/>
<path d="M1753.82 933.68C1753.82 930.528 1756.09 927.962 1758.88 927.962C1761.66 927.962 1763.93 930.527 1763.93 933.68C1763.93 936.833 1761.66 939.399 1758.88 939.399C1756.09 939.399 1753.82 936.833 1753.82 933.68ZM1755.5 933.68C1755.5 935.91 1757.01 937.724 1758.88 937.724C1760.74 937.724 1762.25 935.911 1762.25 933.68C1762.25 931.451 1760.74 929.637 1758.88 929.637C1757.01 929.637 1755.5 931.45 1755.5 933.68Z" fill="white"/>
<path d="M1674.98 987.663L1727.71 999.034L1734.08 969.482L1681.35 958.112L1674.98 987.663Z" fill="#011140"/>
<path d="M1733.98 969.473C1733.98 969.473 1719.24 981.822 1702.86 977.526C1686.48 973.23 1681.26 958.104 1681.26 958.104L1733.98 969.473Z" fill="#17467F"/>
<path d="M1723.68 967.537C1723.68 965.923 1724.99 964.609 1726.61 964.609C1728.22 964.609 1729.54 965.922 1729.54 967.537C1729.54 969.152 1728.22 970.467 1726.61 970.467C1724.99 970.467 1723.68 969.152 1723.68 967.537ZM1724.65 967.537C1724.65 968.616 1725.53 969.493 1726.61 969.493C1727.69 969.493 1728.56 968.616 1728.56 967.537C1728.56 966.459 1727.69 965.582 1726.61 965.582C1725.53 965.582 1724.65 966.459 1724.65 967.537Z" fill="#17467F"/>
<path d="M1683.69 971.247C1683.69 971.247 1683.67 975.53 1682.85 977.597C1682.04 979.662 1679.6 982.417 1678.79 982.417C1677.98 982.417 1679.54 978.113 1679.13 978.199C1678.72 978.285 1676.76 985.362 1675.34 985.534C1673.92 985.707 1672.63 977.596 1673.38 974.411C1674.12 971.226 1677.33 967.406 1677.33 967.406L1683.69 971.247Z" fill="#FFB27D"/>
<path d="M1721.25 850.355C1721.25 850.355 1708.16 852.13 1701.12 866.007C1695.68 876.731 1691.94 910.464 1688.1 921.085C1684.43 931.249 1679.35 950.899 1676.53 966.644C1676.31 967.865 1676.98 969.069 1678.13 969.526L1682.95 971.434C1683.99 971.846 1685.17 971.446 1685.74 970.486C1690.01 963.305 1706.88 934.552 1712.73 917.917C1719.58 898.469 1732.38 886.39 1732.38 886.39L1721.25 850.355Z" fill="#011140"/>
<path d="M1727.57 965.269C1727.6 964.787 1730.65 916.684 1730.06 889.637C1729.76 875.436 1727.57 865.432 1725.78 859.54C1723.83 853.11 1720.92 850.479 1720.84 850.353L1719.85 850.648C1719.92 850.766 1728 862.916 1728.57 889.669C1729.15 916.651 1726.11 964.691 1726.08 965.174L1727.57 965.269Z" fill="#0C2442"/>
<path d="M909.015 1164.34L901.541 1161.91C901.541 1161.91 899.99 1141.63 903.314 1117.32C905.419 1101.92 909.281 1085.24 916.273 1071.85C919.438 1065.78 923.243 1060.39 927.819 1056.1C927.819 1056.1 933.554 1042.79 941.147 1024.99C949.592 1005.2 1002.43 999.401 972.281 1040.85C966.095 1049.36 959.452 1064.33 951.489 1073.42C937.885 1088.96 928.284 1107.11 921.692 1123.08C912.271 1145.93 909.015 1164.34 909.015 1164.34Z" fill="#FFB27D"/>
<path d="M892.001 1165.47C889.735 1169.14 894.627 1172.74 900.678 1176.12C906.729 1179.51 904.223 1179.85 911.961 1185.61C919.699 1191.38 924.261 1190.74 925.447 1189.9C926.501 1189.15 923.339 1185.59 920.021 1181.7C919.602 1181.21 919.187 1180.72 918.771 1180.22C915.065 1175.78 914.516 1170.21 912.776 1164.43C911.128 1158.96 913.74 1145.35 913.74 1145.35L903.411 1137.15C903.411 1137.15 901.313 1149.52 900.158 1154.67C899.479 1157.7 897.002 1160.24 894.992 1162.11C893.905 1163.13 892.797 1164.17 892.001 1165.47Z" fill="#FFB27D"/>
<path d="M900.678 1176.12C906.729 1179.51 904.223 1179.85 911.961 1185.61C919.699 1191.38 924.261 1190.74 925.447 1189.9C926.501 1189.15 923.339 1185.59 920.021 1181.7L919.919 1181.74C919.919 1181.74 912.933 1180.8 906.964 1175.5C902.098 1171.18 898.328 1165.12 894.993 1162.11C893.904 1163.13 892.797 1164.17 892 1165.47C889.735 1169.14 894.627 1172.74 900.678 1176.12Z" fill="#1C468A"/>
<path d="M864.851 1177.51L856.238 1181.97C856.238 1181.97 851.085 1175.26 846.483 1167.16C843.262 1161.48 840.304 1155.11 839.58 1149.9C837.821 1137.23 824.414 1116.42 825.809 1112.88C827.204 1109.33 853.79 1103.2 853.79 1103.2C853.79 1103.2 858.987 1138.78 862.443 1161.78C863.452 1168.5 864.309 1174.14 864.851 1177.51Z" fill="#FFB27D"/>
<path d="M858.29 1127.83C853.368 1130.22 848.797 1131.59 844.874 1132.36C839.028 1133.51 834.63 1133.31 832.685 1133.12C831.965 1133.05 831.583 1132.98 831.583 1132.98C831.583 1132.98 826.799 1129.53 821.255 1121.5C816.173 1114.14 812.398 1103.61 812.398 1103.48L852.995 1099.53L858.29 1127.83Z" fill="#2B478B"/>
<path d="M844.874 1132.36C839.028 1133.51 834.63 1133.31 832.685 1133.12L837.247 1115.39C837.247 1115.39 843.156 1124.63 844.874 1132.36Z" fill="#233862"/>
<path d="M864.851 1177.51L856.238 1181.97C856.238 1181.97 851.085 1175.26 846.483 1167.16C850.068 1166.88 856.296 1165.81 862.444 1161.79C863.452 1168.5 864.309 1174.14 864.851 1177.51Z" fill="white"/>
<path d="M845.279 1111.33C845.279 1111.33 834.395 1126.69 827.803 1148.27C826.253 1153.35 820.967 1159.68 815.623 1165.31C810.439 1170.77 805.202 1175.56 803.265 1177.92L794.492 1173.7C794.492 1173.7 797.575 1164.85 802.137 1156.83C803.83 1153.84 805.722 1150.97 807.744 1148.71C810.538 1145.58 809.619 1106.09 812.399 1103.48C815.183 1100.88 845.279 1111.33 845.279 1111.33Z" fill="#FFB27D"/>
<path d="M850.463 1102.19L834.397 1134.85C834.304 1134.86 822.422 1135.22 813.984 1130.49C809.146 1127.79 806.974 1124.58 806.974 1124.58L811.983 1102.19H850.463Z" fill="#2B478B"/>
<path d="M821.685 993.143C821.685 993.143 816.219 981.649 803.016 988.49C789.813 995.331 802.667 1021.41 795.738 1027.85C788.809 1034.3 798.249 1038.51 796.843 1043.13C795.437 1047.75 799.454 1053.01 808.694 1052.39C817.933 1051.77 827.662 1052.27 831.836 1044.19C836.01 1036.1 835.061 1018.32 833.449 1015.82C831.837 1013.32 821.685 993.143 821.685 993.143Z" fill="#B64C41"/>
<path d="M820.586 1040.89L820.63 1040.92C820.592 1040.94 820.586 1040.89 820.586 1040.89Z" fill="#FFB27D"/>
<path d="M843.08 1054.46L820.63 1040.92C820.755 1040.87 821.208 1040.19 822.887 1035.33C823.602 1033.26 823.981 1031.47 824.168 1030.04C824.186 1029.9 824.205 1029.76 824.218 1029.63C824.448 1027.56 824.28 1026.36 824.28 1026.36L829.198 1028.14L838.294 1031.44C838.188 1033.74 838.511 1035.37 839.002 1036.48C840.19 1039.18 842.403 1039.2 842.465 1039.2L843.08 1054.46Z" fill="#FFB27D"/>
<path d="M839.001 1036.48C830.21 1037.23 825.261 1031.49 824.167 1030.04C824.005 1029.83 823.924 1029.71 823.924 1029.71C823.924 1029.71 824.03 1029.68 824.217 1029.63C824.932 1029.42 826.872 1028.83 829.197 1028.14L838.293 1031.44C838.186 1033.74 838.51 1035.37 839.001 1036.48Z" fill="#ED985F"/>
<path d="M839.441 1033.32C839.441 1033.32 819.911 1035.47 819.511 1022.26C819.111 1009.05 816.224 1003.01 829.737 1001.83C843.25 1000.66 846.442 1005.52 847.238 1009.99C849.726 1023.95 844.943 1032.73 839.441 1033.32Z" fill="#FFB27D"/>
<path d="M803.016 988.489C802.743 987.879 802.549 987.481 802.549 987.481C802.752 987.764 802.905 988.105 803.016 988.489Z" fill="#D35C2B"/>
<path d="M845.72 1040.52C845.72 1040.52 864.447 1026.13 866.446 1021.37C868.445 1016.61 877.042 999.17 879.263 997.392C879.263 997.392 883.919 996.794 884.585 1000.02C885.251 1003.24 880.151 1022.37 876.598 1028.14C873.044 1033.91 856.016 1053.49 850.424 1056.33L845.72 1040.52Z" fill="#FFB27D"/>
<path d="M891.231 988.579C890.922 990.247 890.243 992.037 889.44 992.964C888.39 994.199 886.723 996.669 885.673 998.275C884.994 999.263 884.561 1000 884.561 1000L879.251 997.41C879.251 997.41 879.127 988.394 882.647 986.479C882.771 986.417 882.832 986.356 882.956 986.356C884.438 985.553 885.859 984.998 887.094 984.627C888.761 984.195 890.058 984.133 890.799 984.565C891.478 984.936 891.602 986.727 891.231 988.579Z" fill="#FFB27D"/>
<path d="M830.787 1008.29C823.876 1006.54 826.519 1018.78 824.772 1017.94C822.818 1017 819.46 1017.02 819.991 1019.38C820.52 1021.74 821.285 1022.58 821.684 1024.05C822.082 1025.53 821.681 1028.44 820.074 1027.86C818.467 1027.27 803.521 1010.2 814.074 996.908C824.627 983.614 856.094 991.804 846.185 1005.71C844.443 1008.15 835.708 1009.53 830.787 1008.29Z" fill="#B64C41"/>
<path d="M855.869 1107C855.869 1107 850.001 1110.12 840.761 1109.97C834.875 1109.88 822.375 1107.32 814.339 1104.42C809.759 1102.77 806.628 1101.01 807.005 1099.53C807.547 1097.4 811.469 1081.03 815.094 1065.88C818.408 1052.03 821.473 1039.2 821.473 1039.2C821.473 1039.2 830.619 1045.7 835.95 1043.41C841.281 1041.11 840.596 1038.52 840.596 1038.52C840.596 1038.52 844.083 1037.11 845.718 1037.63C847.353 1038.15 851.995 1035.52 851.995 1035.52C851.995 1035.52 857.121 1039.48 857.317 1047.99C857.348 1049.25 857.273 1050.61 857.05 1052.07L853.35 1056.34C853.35 1056.34 861.2 1081.08 855.869 1107Z" fill="#F99746"/>
<path d="M879.115 1188.09H853.397C853.397 1188.09 852.906 1183.9 853.497 1180.33C853.568 1179.89 853.794 1179.5 854.132 1179.15C855.638 1179.66 857.85 1180.02 860.311 1179.14C862.328 1178.42 863.82 1177.31 864.86 1176.31C865.126 1176.57 870.439 1181.63 872.896 1181.63C875.415 1181.63 879.262 1182.85 879.115 1188.09Z" fill="#AA443E"/>
<path d="M815.623 1165.31C810.439 1170.77 805.202 1175.56 803.265 1177.92L794.492 1173.7C794.492 1173.7 797.575 1164.85 802.137 1156.83C803.705 1159.27 807.822 1164.29 815.623 1165.31Z" fill="white"/>
<path d="M805.165 1175.65C805.165 1175.65 804.844 1181.23 806.706 1181.97C808.567 1182.71 812.037 1184.54 812.037 1188.09H799.155C799.155 1188.09 790.271 1183.72 789.086 1181.86C787.901 1180 795.005 1172.08 795.005 1172.08C795.005 1172.08 799.369 1176.91 805.165 1175.65Z" fill="#AA443E"/>
<path d="M826.479 1084.91C826.479 1084.91 832.119 1083.85 834.326 1085.3C836.533 1086.74 837.185 1089 835.596 1089.93C830.617 1092.82 825.571 1089.62 825.571 1089.62L826.479 1084.91Z" fill="#FFB27D"/>
<path d="M821.701 1040.97C821.701 1040.97 804.327 1044.65 797.475 1071.66C796.805 1074.3 797.498 1077.12 799.325 1079.14C802.475 1082.64 809.421 1087.74 825.572 1089.62C827.335 1089.83 827.572 1085.35 827.572 1085.35C827.396 1085.71 816.6 1078.38 812.005 1074.44C811.174 1073.72 811.209 1072.23 811.809 1071.31C813.361 1068.94 815.966 1064.85 816.842 1062.74C818.12 1059.68 826.556 1042.36 821.701 1040.97Z" fill="#FFB27D"/>
<path d="M821.475 1039.2C821.475 1039.2 811.261 1039.93 802.931 1051.03C802.931 1051.03 805.749 1061.25 818.981 1063.98C818.981 1063.98 827.137 1045.58 821.475 1039.2Z" fill="#F99746"/>
<path d="M960.753 775.345C960.753 775.345 942.525 773.126 933.362 790.088C924.198 807.049 924.939 831.621 916.054 843.211C907.17 854.802 917.535 865.79 917.535 865.79L986.758 868.128C986.758 868.128 991.571 855.172 986.758 839.624C981.946 824.077 1005.45 777.696 960.753 775.345Z" fill="#B64C41"/>
<path d="M1019.36 981.197C1018.65 983.903 1016.33 990.014 1014.53 990.012C1013.06 990.011 1012.53 982.53 1010.64 980.941C1007.9 978.636 1005.67 973.805 1005.31 972.634C1004.58 970.22 1003.89 969.718 1003.89 969.718L1003.89 969.714H1003.89C1003.89 969.714 981.999 929.697 980.288 919.454C979.725 916.12 978.293 909.429 976.609 901.935C974.78 893.787 972.659 884.687 971.058 877.871C978.045 876.509 985.774 876.029 992.077 875.907C993.36 884.199 994.508 892.67 995.498 900.033C996.969 910.983 998.086 919.48 998.776 921.3C1000.68 926.298 1005.92 953.23 1010.87 967.213C1011.44 968.588 1013.04 972.171 1014.8 973.389C1017 974.908 1020.06 978.487 1019.36 981.197Z" fill="#E8945B"/>
<path d="M979.687 941.7C967.597 903.054 991.933 903.557 990.674 884.218C989.415 864.879 974.442 844.086 974.442 844.086C974.442 844.086 973.906 844.031 972.97 843.945C972.457 843.897 972.015 843.563 971.838 843.08C971.28 841.552 971.117 838.208 971.126 834.721C971.138 829.398 971.546 823.746 971.546 823.746L953.589 820.19L952.521 819.98C952.553 829.012 950.844 835.803 948.993 839.595C948.113 841.4 946.395 842.634 944.407 842.912C940.549 843.453 933.762 844.606 929.187 846.519C926.965 847.447 925.269 848.553 924.677 849.853C919.746 860.696 914.823 888.059 911.362 907.58C909.434 918.46 907.963 926.904 907.195 928.693C905.054 933.685 898.513 961.156 892.924 974.712L900.062 976.853C900.062 976.853 923.606 937.788 925.747 927.624C926.446 924.314 928.158 917.692 930.155 910.273C930.457 909.15 930.766 908.009 931.078 906.858C934.606 916.425 936.407 920.853 936.309 924.986C936.17 930.869 932.182 936.156 923.845 954.853C919.239 965.185 992.03 981.17 979.687 941.7Z" fill="#FFB27D"/>
<path d="M971.546 823.746C971.546 823.746 971.137 829.397 971.125 834.721C961.077 834.438 955.765 825.272 953.589 820.191L971.546 823.746Z" fill="#E8945B"/>
<path d="M974.902 828.787C974.902 828.787 951.128 829.18 951.111 814.37C951.095 799.561 948.015 789.638 963.194 788.762C978.373 787.885 981.328 793.533 982.536 798.475C983.744 803.416 981.086 828.304 974.902 828.787Z" fill="#FFB27D"/>
<path d="M1008.08 1173.92L1000.45 1175.8C1000.45 1175.8 988.449 1159.37 978.477 1136.96C972.157 1122.76 966.658 1106.54 965.55 1091.47C965.048 1084.65 965.445 1078.06 967.073 1072C967.073 1072 964.939 1057.67 962.024 1038.54C958.786 1017.27 954.587 990.079 951.296 970.086L953.282 969.496L985.74 950.516C985.74 950.516 1000.65 984.514 996.845 1035.63C996.064 1046.12 998.3 1062.34 996.319 1074.27C992.937 1094.64 994.329 1115.13 997.135 1132.18C1001.15 1156.56 1008.08 1173.92 1008.08 1173.92Z" fill="#FFB27D"/>
<path d="M929.67 903.008C934.126 915.316 936.42 920.335 936.309 924.987C950.511 902.998 976.164 899.68 976.164 899.68L927.451 894.112C927.897 897.125 928.622 900.107 929.67 903.008Z" fill="#CB7D45"/>
<path d="M981.829 790.24C978.161 785.793 975.386 786.76 973.829 788.095C961.082 781.025 952.454 791.52 952.454 791.52C950.864 802.146 943.201 808.233 943.201 808.233C943.201 808.233 947.434 810.483 957.524 808.341C969.5 805.799 972.795 792.304 973.272 790.549C974.724 791.852 977.585 794.684 978.457 797.458C979.642 801.229 980.175 808.992 982.438 808.729C982.436 808.729 987.34 796.921 981.829 790.24Z" fill="#B64C41"/>
<path d="M893.431 973.524C893.431 973.524 891.261 978.637 889.001 980.064C886.742 981.491 883.531 984.939 884.126 987.674C884.721 990.409 885.315 994.69 888.169 994.69C891.023 994.69 897.682 982.086 898.515 979.708C899.348 977.329 900.061 976.854 900.061 976.854L893.431 973.524Z" fill="#FFB27D"/>
<path d="M1005.45 1085.91C976.745 1102.31 901.174 1076.2 901.251 1074.69C901.651 1066.66 908.914 1018.33 917.442 972.206C922.684 943.844 936.643 933.249 934.411 931.461C934.389 931.439 934.378 931.428 934.378 931.428C925.772 925.321 929.492 914.837 930.058 911.083C927.414 911.794 918.886 913.404 909.124 908.018C913.144 888.362 918.874 860.798 924.616 849.882C924.894 849.349 925.371 848.861 926.027 848.394C925.982 848.35 925.971 848.328 925.971 848.328C931.346 844.408 942.329 843.209 942.329 843.209C942.329 843.209 948.248 857.701 950.058 859.966C961.774 874.603 982.818 867.995 979.953 858.878C978.92 855.558 973.601 845.107 972.957 843.941C972.924 843.885 974.445 844.086 974.445 844.086C977.976 844.552 980.475 844.907 982.274 845.219C985.805 845.819 986.683 846.24 987.56 846.918C990.658 850.016 994.689 857.712 995.012 871.449C995.134 876.557 1000.45 932.961 983.24 931.984C982.851 931.962 983.185 932.883 983.929 934.627C986.361 940.213 993.257 954.228 995.256 972.207C1001.77 1030.7 1005.45 1085.91 1005.45 1085.91Z" fill="white"/>
<path d="M968.071 820.043C968.071 820.043 968.523 821.866 973.068 821.531C973.068 821.531 976.884 821.25 976.743 819.242C976.743 819.242 973.023 817.856 968.071 820.043Z" fill="white"/>
<path d="M898.515 979.708C898.515 979.708 897.735 985.463 896.218 986.79C894.701 988.117 894.48 990.506 892.926 989.222C891.37 987.937 898.515 979.708 898.515 979.708Z" fill="#FFB27D"/>
<path d="M994.208 1183.84C994.215 1188.16 1000.27 1188.64 1007.2 1188.33C1014.13 1188.03 1012.17 1189.64 1021.79 1190.46C1031.4 1191.29 1034.94 1188.34 1035.51 1187C1036.01 1185.81 1031.45 1184.45 1026.58 1182.89C1025.96 1182.7 1025.35 1182.49 1024.74 1182.29C1019.25 1180.47 1015.85 1176.02 1011.33 1172.02C1007.04 1168.24 1002.1 1155.3 1002.1 1155.3L988.999 1153.76C988.999 1153.76 993.729 1165.38 995.461 1170.37C996.48 1173.3 995.709 1176.77 994.984 1179.41C994.595 1180.85 994.204 1182.32 994.208 1183.84Z" fill="#FFB27D"/>
<path d="M1007.2 1188.33C1014.13 1188.03 1012.17 1189.64 1021.79 1190.46C1031.4 1191.29 1034.94 1188.34 1035.51 1187C1036.01 1185.81 1031.45 1184.45 1026.58 1182.89L1026.51 1182.98C1026.51 1182.98 1020.08 1185.86 1012.21 1184.49C1005.8 1183.38 999.405 1180.22 994.984 1179.41C994.595 1180.85 994.204 1182.33 994.209 1183.85C994.216 1188.16 1000.27 1188.64 1007.2 1188.33Z" fill="#1C468A"/>
<path d="M1005.45 1085.91C976.745 1102.31 901.174 1076.19 901.251 1074.68C901.651 1066.66 908.914 1018.33 917.442 972.206C922.684 943.844 936.643 933.249 934.411 931.461C934.944 931.895 943.04 938.424 957.888 937.535C971.181 936.736 981.42 935.07 983.93 934.626C986.362 940.212 993.258 954.227 995.257 972.206C1001.77 1030.7 1005.45 1085.91 1005.45 1085.91Z" fill="#F99746"/>
<path d="M934.378 931.428C934.378 931.428 957.884 941.238 983.241 931.984L984.529 935.958C984.529 935.958 958.444 945.019 933.362 934.709L934.378 931.428Z" fill="#ED7D2B"/>
<path d="M2975.43 1195.99H4.35703C2.50103 1195.99 0.983032 1194.47 0.983032 1192.61V1191.46C0.983032 1189.61 2.50103 1188.09 4.35703 1188.09H2975.43C2977.29 1188.09 2978.8 1189.61 2978.8 1191.46V1192.61C2978.8 1194.47 2977.29 1195.99 2975.43 1195.99Z" fill="#2E3552"/>
<path d="M1970.52 1190.9H1945.06C1945.25 1189.57 1945.9 1185.5 1947.09 1181.76C1947.51 1180.46 1947.99 1179.19 1948.53 1178.09C1951.01 1173.15 1966.74 1176.29 1966.74 1176.29C1966.74 1176.29 1968.2 1177.55 1969.34 1182.33C1969.85 1184.43 1970.29 1187.23 1970.52 1190.9Z" fill="#233862"/>
<path d="M1923.78 802C1923.78 802 1903.49 805.563 1898.91 817.537C1894.32 829.513 1868.41 1022.94 1868.41 1022.94C1868.41 1022.94 1881.24 1033.11 1908.78 1029.46C1936.33 1025.81 1923.78 802 1923.78 802Z" fill="#9DB0F4"/>
<path d="M1893.58 1182.87C1893.51 1186.33 1893.08 1189.61 1891.82 1190.9H1841.46C1842.1 1189.08 1843.91 1186.34 1849.08 1185.5C1854.96 1184.55 1864.12 1181.72 1869.46 1176.07C1871.37 1174.06 1872.79 1171.69 1873.41 1168.92C1875.78 1158.37 1893 1172.15 1893 1172.15C1893 1172.15 1893.69 1177.71 1893.58 1182.87Z" fill="#233862"/>
<path d="M1871.9 1177.74C1877.52 1179.53 1888.28 1185.01 1895.11 1182.43C1899.53 1180.77 1924.21 1109.37 1925.81 1078.14C1925.93 1075.87 1926.38 1072.7 1927.08 1068.84C1928.54 1060.78 1931.1 1049.7 1934.04 1037.48C1941.94 1004.73 1952.63 963.764 1952.39 950.67C1952.04 930.347 1891.83 946.411 1891.83 946.411C1891.83 946.411 1887.69 963.081 1886.86 987.218C1885.23 1035.13 1880.73 1116.05 1868.51 1172.25C1867.99 1174.64 1869.56 1177 1871.9 1177.74Z" fill="#233862"/>
<path d="M1913.69 950.741L1945.51 1181.42C1945.51 1181.42 1959.49 1184.79 1970.36 1182.1C1970.36 1182.1 1979.68 1059.41 1978.9 1029.75C1978.13 1000.09 1985.59 950.383 1977.2 944.901C1968.81 939.42 1913.69 950.741 1913.69 950.741Z" fill="#2B478B"/>
<path d="M1981.22 812.567C1981.22 812.567 1947.77 790.939 1923.78 802C1919.96 803.763 1915.6 808.682 1912.48 812.121C1903.8 821.677 1886.86 973.472 1886.86 973.472C1886.86 973.472 1934.96 989.763 1981.22 967.944V812.567Z" fill="white"/>
<path d="M1921.88 801.451C1921.88 801.451 1888.02 815.329 1883.43 825.992C1878.85 836.654 1863.94 902.133 1863.94 909.811C1863.94 917.489 1889.89 911.528 1894.07 899.144C1897.54 888.86 1909.24 857.269 1915.42 837.288L1921.88 801.451Z" fill="#9DB0F4"/>
<path d="M1928.91 812.025C1936.3 813.475 1947.16 811.93 1955.11 806.69C1951.52 798.117 1950.05 791.347 1949.53 786.967C1949.5 786.734 1949.47 786.508 1949.45 786.29C1949.22 784.019 1949.25 782.479 1949.36 781.772H1930.25C1930.25 781.772 1925.02 784.161 1925.02 785.812C1925.02 786.695 1925.02 787.54 1925 788.346C1924.96 790.543 1924.88 792.462 1924.76 794.11C1924.4 799.472 1923.78 801.999 1923.78 801.999C1923.78 801.999 1921.45 810.562 1928.91 812.025Z" fill="#FFB27D"/>
<path d="M1924.76 794.111C1939.24 796.909 1947.64 788.997 1949.53 786.967C1949.8 786.676 1949.93 786.504 1949.93 786.504C1949.78 786.428 1949.62 786.358 1949.45 786.29C1944.06 784.107 1931.83 785.843 1925 788.347C1924.96 790.545 1924.88 792.464 1924.76 794.111Z" fill="#E2915A"/>
<path d="M1954.26 778.632C1951.67 792.557 1933.7 792.1 1925.94 791.225C1923.75 790.981 1922.38 790.703 1922.38 790.703C1919.92 790.045 1918.54 786.164 1917.9 781.081C1916.63 771.02 1918.24 756.253 1919.93 752.476C1922.49 746.793 1927.31 740.646 1945.4 745.081C1963.5 749.518 1957.58 760.791 1954.26 778.632Z" fill="#FFB27D"/>
<path d="M1919.26 744.707C1921.73 741.283 1926.98 737.101 1931.74 734.523C1941.97 728.988 1955.07 734.698 1955.12 734.721C1969.9 741.219 1973.76 752.527 1965.92 770.14C1957.64 788.766 1949.75 786.67 1949.75 786.67C1949.75 786.67 1951.42 785.628 1951.27 779.823C1951.26 779.493 1951.25 779.217 1951.23 778.98C1951.16 777.79 1951.58 776.597 1952.47 775.803C1954.3 774.164 1955.2 769.209 1953.66 767.83C1951.81 766.166 1949.2 768.186 1948.37 769.742C1947.64 770.84 1946.34 771.224 1945.12 770.457C1940.52 767.55 1943.51 761.733 1939.12 758.176C1934.72 754.617 1925.8 757.605 1919.21 754.769C1910.58 751.555 1917.4 747.287 1919.26 744.707Z" fill="#233862"/>
<path d="M1917.2 1037.16C1920.11 1037.91 1923 1038.52 1925.86 1039C1928.4 1039.43 1930.92 1039.75 1933.45 1039.96C1947.76 1041.21 1962.14 1039.19 1978.94 1034.37C1982.73 1033.29 1986.64 1032.06 1990.7 1030.69C1991.13 1030.55 1989.59 986.107 1987.82 940.267C1987.64 935.536 1987.45 930.785 1987.27 926.068C1987.19 924.069 1987.11 922.082 1987.03 920.098C1985.42 879.556 1983.83 842.943 1983.49 840.971C1982.73 836.51 1982.01 832.707 1981.22 829.412C1978.93 819.807 1976.09 814.54 1969.89 810.011C1969.29 809.552 1964.33 807.052 1959.96 804.877C1956.33 803.077 1953.11 801.506 1953.11 801.506C1953.11 801.506 1953.11 801.506 1953.11 801.506C1951.67 802.214 1949.94 805.516 1948.13 810.152C1944.8 818.698 1941.2 831.786 1938.7 841.558C1938.7 841.585 1938.69 841.6 1938.69 841.608C1938.69 841.612 1938.69 841.612 1938.69 841.612C1937.08 847.923 1935.93 852.838 1935.6 854.249C1935.04 856.63 1934.3 861.239 1933.44 867.489C1932.26 875.993 1930.85 887.536 1929.37 900.635C1929.21 901.981 1929.06 903.345 1928.91 904.721C1928.73 906.292 1928.55 907.882 1928.38 909.488C1928.32 910.004 1928.26 910.519 1928.21 911.036C1927.64 916.223 1927.06 921.577 1926.48 927.02C1926.01 931.519 1919.18 934.771 1918.71 939.346C1918.44 942.033 1917.87 966.823 1917.15 974.735C1916.62 980.385 1917 1034.5 1917.2 1037.16Z" fill="#AEC3FF"/>
<path d="M1966.57 857.315C1966.59 857.408 1967.73 898.311 1936.96 903.28C1906.19 908.25 1926.63 909.563 1926.63 909.563C1926.63 909.563 1984.53 907.102 1985.48 905.574C1986.44 904.045 1966.57 857.315 1966.57 857.315Z" fill="#9DB0F4"/>
<path d="M1940.57 920.84C1940.57 920.84 1941.15 921.249 1942.26 921.964C1942.28 921.971 1942.29 921.986 1942.31 921.998C1947.01 924.994 1960.94 933.162 1981.22 938.64C1983.35 939.217 1985.55 939.764 1987.82 940.268C1987.64 935.537 1987.45 930.786 1987.27 926.069C1989.95 925.859 1992.51 925.519 1994.9 925.014C1994.82 924.391 1994.73 923.768 1994.65 923.145C1992.07 922.086 1989.51 921.066 1987.03 920.099C1985.02 919.311 1983.07 918.562 1981.22 917.867C1972.89 914.702 1966.71 912.558 1966.71 912.558L1942.05 920.371L1940.57 920.84Z" fill="#9DB0F4"/>
<path d="M1934.04 920.155C1934.04 920.155 1937.21 920.947 1942.26 921.964C1942.28 921.964 1942.29 921.968 1942.31 921.975C1951.61 923.844 1967.25 926.466 1981.22 926.325C1983.29 926.303 1985.31 926.222 1987.27 926.069C1989.95 925.859 1992.51 925.519 1994.9 925.014C2000 923.936 2004.28 922.113 2007.08 919.262C2027.86 898.094 1995.74 822.124 1988.98 814.733C1981.1 806.102 1966.71 803.075 1958.76 802.035C1958.43 801.993 1958.11 801.951 1957.8 801.913C1955.01 801.581 1953.21 801.512 1953.11 801.508C1953.11 801.508 1953.11 801.508 1953.11 801.508C1953.11 801.508 1953.73 803.511 1954.78 806.909C1955.18 808.223 1955.65 809.749 1956.17 811.45C1961.05 827.434 1970.47 858.848 1974.62 876.564C1976.14 883.046 1976.95 887.694 1976.58 889.082C1974.96 895.133 1958.17 898.244 1947.54 899.62C1943.1 900.193 1939.73 900.465 1938.98 900.522C1938.92 900.522 1938.87 900.526 1938.82 900.533L1938.2 903.055L1936.73 909.106L1935.29 915.049L1934.04 920.155Z" fill="#AEC3FF"/>
<path d="M1876.08 956.571L1947.45 953.564L1932.97 864.619L1861.6 867.626L1876.08 956.571Z" fill="#F99746"/>
<path d="M1938.82 900.533C1938.82 900.533 1924.93 899.564 1924.23 902.803C1922.6 910.352 1936.17 916.551 1940.57 916.127C1944.97 915.703 1942.02 900.029 1938.82 900.533Z" fill="#FFB27D"/>
<path d="M1865.5 885.688C1865.5 885.688 1878.8 881.532 1880.22 884.521C1883.55 891.49 1871.78 900.659 1867.41 901.263C1863.03 901.867 1862.28 885.937 1865.5 885.688Z" fill="#FFB27D"/>
<path d="M1951.67 797.041C1951.67 797.041 1958.26 798.185 1961.19 802.389C1961.19 802.389 1938.6 841.964 1938.69 841.609C1938.79 841.254 1946.08 801.899 1951.67 797.041Z" fill="#9DB0F4"/>
<path d="M1924.46 797.575C1922.53 798.302 1918.84 802.082 1918.01 804.173L1915.41 837.288C1915.41 837.288 1920.96 812.985 1923.78 802C1924.5 799.208 1924.37 798.359 1924.46 797.575Z" fill="#9DB0F4"/>
<path d="M1909.31 865.615C1909.31 865.615 1908.75 863.147 1905.5 863.434C1902.25 863.72 1884 864.619 1884 864.619C1884 864.619 1880.48 864.56 1880.81 866.816L1909.31 865.615Z" fill="#C65447"/>
</svg>
