<svg width="82" height="73" viewBox="0 0 82 73" fill="none" xmlns="http://www.w3.org/2000/svg">
<path d="M62.375 2C48.575 2 40.8125 13.5014 40.8125 19.25C40.8125 13.5014 33.05 2 19.25 2C5.45 2 2 13.5014 2 19.25C2 49.4375 40.8125 71 40.8125 71C40.8125 71 79.625 49.4375 79.625 19.25C79.625 13.5014 76.175 2 62.375 2Z" fill="#011140" stroke="#011140" stroke-width="4" stroke-linecap="round" stroke-linejoin="round"/>
<circle cx="70.134" cy="34.4606" r="2.88916" fill="#E60000"/>
<path d="M12.7076 26.6506C11.8316 27.9187 12.3426 26.8538 12.7076 26.1629V26.6506V28.2357V28.9673L12.0993 30.4304L11.6126 31.2839L13.5593 32.6251L16.9662 31.2839H19.5213L21.2247 30.4304H23.2931L24.6315 28.9673V30.4304L26.2132 29.6988H27.4299C27.5922 28.9266 28.2817 27.8455 29.7417 29.6988C30.211 30.2945 30.4415 30.4863 30.5179 30.4304L29.7417 28.2357C30.1545 29.0907 30.6794 30.3125 30.5179 30.4304L32.1752 32.6251V34.2102L32.5402 36.161C32.8646 36.6081 33.3189 37.6485 32.5402 38.2338C31.7615 38.8191 31.1763 38.9654 30.981 38.9654V40.1846H26.6999C26.2538 39.4937 25.2155 38.0387 24.6315 37.7461C24.0475 37.4535 23.4959 37.6242 23.2931 37.7461L22.6847 36.161H20.2513C20.2513 35.9985 20.1053 35.5758 19.5213 35.1856C19.0016 34.8384 18.5077 34.9803 18.2622 35.1304C18.248 35.2013 18.146 35.2678 17.8179 35.1856C17.4315 35.0888 17.1989 34.902 17.0725 34.7731L16.9662 34.7142C16.9253 34.5708 16.9441 34.6421 17.0725 34.7731L17.8179 35.1856C18.146 35.2678 18.248 35.2013 18.2622 35.1304C18.2318 35.149 18.2052 35.1677 18.1829 35.1856C18.1359 34.9269 18.2818 35.0329 18.2622 35.1304C18.5077 34.9803 19.0016 34.8384 19.5213 35.1856C20.1053 35.5758 20.2513 35.9985 20.2513 36.161H22.6847L23.2931 37.7461C23.4959 37.6242 24.0475 37.4535 24.6315 37.7461C25.2155 38.0387 26.2538 39.4937 26.6999 40.1846H30.981V38.9654C31.1763 38.9654 31.7615 38.8191 32.5402 38.2338C33.3189 37.6485 32.8646 36.6081 32.5402 36.161L32.1752 34.2102V32.6251L30.5179 30.4304C30.4415 30.4863 30.211 30.2945 29.7417 29.6988C28.2817 27.8455 27.5922 28.9266 27.4299 29.6988H26.2132L24.6315 30.4304V28.9673L23.2931 30.4304H21.2247L19.5213 31.2839H16.9662L13.5593 32.6251L11.6126 31.2839L12.0993 30.4304L12.7076 28.9673V28.2357V26.6506Z" fill="white"/>
<path d="M30.5179 30.4304C30.4415 30.4863 30.211 30.2945 29.7417 29.6988C28.2817 27.8455 27.5922 28.9266 27.4299 29.6988H26.2132L24.6315 30.4304V28.9673L23.2931 30.4304H21.2247L19.5213 31.2839H16.9662L13.5593 32.6251L11.6126 31.2839L12.0993 30.4304L12.7076 28.9673V28.2357V26.1629C12.3426 26.8539 11.8316 27.9187 12.7076 26.6506C13.5837 25.3826 12.6671 24.5779 12.0993 24.334L11.6126 25.0656L9.90918 22.5051V21.0419H9.17915V18.9692L11.0042 16.2868V15.1894L11.6126 14.5798C11.6937 14.214 12.0263 13.2386 12.7076 12.2631C13.389 11.2877 12.9915 10.0684 12.7076 9.58071H15.9928L18.3045 7.14215C18.4262 6.93894 18.9859 6.41059 20.2513 5.92287C21.5167 5.43516 22.4008 6.12609 22.6847 6.53251L25.2399 7.14215L26.6999 9.093L27.4299 11.4096H28.4033V12.2631L29.7417 13.4824V15.1894V16.2868C29.9851 16.5306 30.4718 17.1646 30.4718 17.7499C28.7197 20.9688 30.8773 25.0249 32.1752 26.6506V28.2357L33.1485 30.4304L34.3653 34.2102C35.6631 35.7952 38.5021 38.9654 39.4755 38.9654C40.6922 38.9654 41.3006 37.868 42.639 36.5268C44.1964 36.5268 46.4513 37.0958 47.3842 37.3803C47.9925 37.3803 49.3796 37.3803 50.061 37.3803C51.6847 34.2102 52.7264 34.2102 55.4348 37.3803C55.4348 38.2338 58.1432 22.6306 58.1432 24.9223L60.6433 40.1846L63.56 34.2102H67.5184M30.5179 30.4304C30.6794 30.3125 30.1545 29.0907 29.7417 28.2357L30.5179 30.4304ZM30.5179 30.4304L32.1752 32.6251V34.2102L32.5402 36.161C32.8646 36.6081 33.3189 37.6485 32.5402 38.2338C31.7615 38.8191 31.1763 38.9654 30.981 38.9654V40.1846H26.6999C26.2538 39.4937 25.2155 38.0387 24.6315 37.7461C24.0475 37.4535 23.4959 37.6242 23.2931 37.7461L22.6847 36.161H20.2513C20.2513 35.9985 20.1053 35.5758 19.5213 35.1856C18.9372 34.7954 18.3857 35.023 18.1829 35.1856C18.1018 34.7385 18.5966 35.3807 17.8179 35.1856M17.8179 35.1856C17.0392 34.9905 16.885 34.4297 16.9662 34.7142L17.8179 35.1856ZM17.8179 35.1856V36.161M17.8179 36.161H16.9662M17.8179 36.161C17.899 36.0391 18.1585 35.8684 18.5479 36.161C18.9372 36.4536 19.8457 36.5268 20.2513 36.5268V37.7461L19.8863 38.2338H20.8597V39.6969H19.8863C19.8457 39.4531 19.6429 38.9654 19.1563 38.9654C18.6696 38.9654 18.5479 39.4531 18.5479 39.6969C18.264 40.0627 17.6232 40.5748 17.3312 39.6969C17.0392 38.8191 16.9662 38.3557 16.9662 38.2338L15.2627 37.7461V38.2338L15.8711 38.9654V40.5504H15.2627V41.4039L14.5327 41.7697V42.5013C13.7621 43.1109 11.7586 44.0376 9.90918 42.8671C8.81413 43.8425 7.96243 44.696 5.28564 45.1837" stroke="white" stroke-width="4"/>
<circle cx="67.7144" cy="12.7959" r="4.69388" fill="#FFCC00"/>
</svg>
