<svg width="171" height="152" viewBox="0 0 171 152" fill="none" xmlns="http://www.w3.org/2000/svg">
<path d="M131.5 2C101.9 2 85.25 26.6698 85.25 39C85.25 26.6698 68.6 2 39 2C9.4 2 2 26.6698 2 39C2 103.75 85.25 150 85.25 150C85.25 150 168.5 103.75 168.5 39C168.5 26.6698 161.1 2 131.5 2Z" fill="white" stroke="white" stroke-width="4" stroke-linecap="round" stroke-linejoin="round"/>
<path d="M34.9863 65.5611C33.4535 67.7798 34.3477 65.9166 34.9863 64.7077V65.5611V68.3345V69.6145L33.9219 72.1746L33.0703 73.6679L36.4766 76.0147L42.4375 73.6679H46.9082L49.8887 72.1746H53.5078L55.8496 69.6145V72.1746L58.6172 70.8945H60.7461C61.03 69.5434 62.2363 67.6518 64.791 70.8945C65.6121 71.9368 66.0154 72.2723 66.1492 72.1746L64.791 68.3345C65.5134 69.8304 66.4317 71.9682 66.1492 72.1746L69.0489 76.0147V78.7881L69.6875 82.2015C70.2552 82.9837 71.05 84.8042 69.6875 85.8282C68.325 86.8523 67.3011 87.1083 66.9594 87.1083V89.2417H59.4688C58.6882 88.0327 56.8715 85.4869 55.8496 84.9749C54.8277 84.4629 53.8626 84.7616 53.5078 84.9749L52.4434 82.2015H48.1856C48.1856 81.917 47.9301 81.1775 46.9082 80.4948C45.999 79.8874 45.1347 80.1357 44.7053 80.3981C44.6803 80.5223 44.5019 80.6386 43.9277 80.4948C43.2518 80.3254 42.8448 79.9986 42.6236 79.773L42.4375 79.67C42.366 79.4191 42.399 79.5438 42.6236 79.773L43.9277 80.4948C44.5019 80.6386 44.6803 80.5223 44.7053 80.3981C44.6521 80.4307 44.6055 80.4634 44.5664 80.4948C44.4843 80.0422 44.7395 80.2276 44.7053 80.3981C45.1347 80.1357 45.999 79.8874 46.9082 80.4948C47.9301 81.1775 48.1856 81.917 48.1856 82.2015H52.4434L53.5078 84.9749C53.8626 84.7616 54.8277 84.4629 55.8496 84.9749C56.8715 85.4869 58.6882 88.0327 59.4688 89.2417H66.9594V87.1083C67.3011 87.1083 68.325 86.8523 69.6875 85.8282C71.05 84.8042 70.2552 82.9837 69.6875 82.2015L69.0489 78.7881V76.0147L66.1492 72.1746C66.0154 72.2723 65.6121 71.9368 64.791 70.8945C62.2363 67.6518 61.03 69.5434 60.7461 70.8945H58.6172L55.8496 72.1746V69.6145L53.5078 72.1746H49.8887L46.9082 73.6679H42.4375L36.4766 76.0147L33.0703 73.6679L33.9219 72.1746L34.9863 69.6145V68.3345V65.5611Z" fill="white"/>
<path d="M66.1492 72.1746C66.0154 72.2723 65.6121 71.9368 64.791 70.8945C62.2363 67.6518 61.03 69.5434 60.7461 70.8945H58.6172L55.8496 72.1746V69.6145L53.5078 72.1746H49.8887L46.9082 73.6679H42.4375L36.4766 76.0147L33.0703 73.6679L33.9219 72.1746L34.9863 69.6145V68.3345V64.7077C34.3477 65.9166 33.4535 67.7798 34.9863 65.5611C36.5191 63.3424 34.9154 61.9343 33.9219 61.5076L33.0703 62.7877L30.0898 58.3076V55.7475H28.8125V52.1207L32.0059 47.4273V45.5072L33.0703 44.4405C33.2122 43.8005 33.7941 42.0938 34.9863 40.3871C36.1785 38.6804 35.4831 36.547 34.9863 35.6937H40.7344L44.7793 31.4269C44.9922 31.0713 45.9715 30.1469 48.1856 29.2935C50.3996 28.4402 51.9466 29.6491 52.4434 30.3602L56.9141 31.4269L59.4688 34.8403L60.7461 38.8937H62.4492V40.3871L64.791 42.5205V45.5072V47.4273C65.2168 47.854 66.0684 48.9633 66.0684 49.9874C63.0028 55.6195 66.778 62.7166 69.0489 65.5611V68.3345L70.752 72.1746L72.8809 78.7881C75.1517 81.5615 80.1192 87.1083 81.8223 87.1083C83.9512 87.1083 85.0157 85.1882 87.3575 82.8415C90.0825 82.8415 94.028 83.8371 95.6602 84.3349C96.7247 84.3349 99.1516 84.3349 100.344 84.3349C103.185 78.7881 105.008 78.7881 109.746 84.3349C109.746 85.8283 114.485 58.5271 114.485 62.5369L118.86 89.2417L123.963 78.7881H130.889M66.1492 72.1746C66.4317 71.9682 65.5134 69.8304 64.791 68.3345L66.1492 72.1746ZM66.1492 72.1746L69.0489 76.0147V78.7881L69.6875 82.2015C70.2552 82.9837 71.05 84.8042 69.6875 85.8282C68.325 86.8523 67.3011 87.1083 66.9594 87.1083V89.2417H59.4688C58.6882 88.0327 56.8715 85.4869 55.8496 84.9749C54.8277 84.4629 53.8626 84.7616 53.5078 84.9749L52.4434 82.2015H48.1856C48.1856 81.917 47.9301 81.1775 46.9082 80.4948C45.8863 79.8121 44.9212 80.2103 44.5664 80.4948C44.4245 79.7125 45.2902 80.8361 43.9277 80.4948M43.9277 80.4948C42.5652 80.1534 42.2956 79.1722 42.4375 79.67L43.9277 80.4948ZM43.9277 80.4948V82.2015M43.9277 82.2015H42.4375M43.9277 82.2015C44.0697 81.9882 44.5238 81.6895 45.2051 82.2015C45.8863 82.7135 47.4759 82.8415 48.1856 82.8415V84.9749L47.5469 85.8282H49.25V88.3883H47.5469C47.4759 87.9616 47.1211 87.1083 46.2695 87.1083C45.418 87.1083 45.2051 87.9616 45.2051 88.3883C44.7083 89.0283 43.5871 89.9243 43.0762 88.3883C42.5652 86.8523 42.4375 86.0416 42.4375 85.8282L39.457 84.9749V85.8282L40.5215 87.1083V89.8817H39.457V91.3751L38.1797 92.0151V93.2951C36.8314 94.3618 33.3258 95.9832 30.0898 93.9351C28.1738 95.6418 26.6836 97.1352 22 97.9886" stroke="#011140" stroke-width="3"/>
<circle cx="136.463" cy="79.6699" r="6.19704" fill="#E60000"/>
<circle cx="142" cy="22" r="10" fill="#FFCC00"/>
</svg>
